<?xml version="1.0" standalone="no"?>
<!DOCTYPE svg PUBLIC "-//W3C//DTD SVG 20010904//EN"
 "http://www.w3.org/TR/2001/REC-SVG-20010904/DTD/svg10.dtd">
<svg version="1.0" xmlns="http://www.w3.org/2000/svg"
 width="800.000000pt" height="800.000000pt" viewBox="0 0 800.000000 800.000000"
 preserveAspectRatio="xMidYMid meet">
<metadata>
Created by potrace 1.14, written by Peter Selinger 2001-2017
</metadata>
<g transform="translate(0.000000,800.000000) scale(0.100000,-0.100000)"
fill="#000000" stroke="none">
<path d="M571 7950 c-259 -68 -464 -275 -531 -535 -20 -77 -20 -111 -20 -3415
0 -3309 0 -3337 20 -3415 67 -263 272 -468 535 -535 78 -20 106 -20 3420 -20
3314 0 3342 0 3420 20 263 67 468 272 535 535 20 78 20 106 20 3415 0 3309 0
3337 -20 3415 -67 263 -272 468 -535 535 -78 20 -105 20 -3424 19 -3276 0
-3348 -1 -3420 -19z m2605 -2595 c512 -1446 525 -1490 733 -2430 39 -176 74
-331 77 -345 4 -16 35 106 90 350 89 399 224 949 273 1115 17 55 223 655 458
1332 l428 1233 848 0 847 0 0 -2670 0 -2670 -556 0 -556 0 5 1652 c4 1204 9
1782 20 2128 21 615 21 588 -9 470 -124 -483 -292 -1077 -419 -1490 -36 -118
-267 -786 -513 -1485 l-447 -1270 -466 -3 -466 -2 -451 1262 c-248 695 -471
1326 -496 1403 -115 363 -236 777 -381 1310 l-93 340 4 -145 c3 -80 10 -293
16 -475 6 -181 13 -1087 15 -2012 l5 -1683 -546 0 -546 0 0 2670 0 2670 842
-2 842 -3 442 -1250z"/>
</g>
</svg>
